<svg xmlns="http://www.w3.org/2000/svg" width="96" height="96" viewBox="0 0 96 96" fill="none">
    <path fill-rule="evenodd" clip-rule="evenodd"
        d="M38.1719 10C38.1719 8.89543 39.0673 8 40.1719 8H56.6482C57.7528 8 58.6482 8.89543 58.6482 10V26.8036C58.6482 28.3432 60.3149 29.3054 61.6482 28.5356L76.2016 20.1333C77.1581 19.581 78.3813 19.9088 78.9336 20.8653L87.1718 35.1341C87.724 36.0907 87.3963 37.3139 86.4397 37.8662L71.8884 46.2673C70.5551 47.0371 70.5551 48.9616 71.8884 49.7314L86.4409 58.1333C87.3975 58.6856 87.7253 59.9088 87.173 60.8654L78.9348 75.1342C78.3826 76.0908 77.1594 76.4185 76.2028 75.8662L61.6482 67.4632C60.3149 66.6934 58.6482 67.6556 58.6482 69.1952V86C58.6482 87.1046 57.7528 88 56.6482 88H40.1719C39.0673 88 38.1719 87.1046 38.1719 86V69.1975C38.1719 67.6579 36.5052 66.6957 35.1719 67.4655L20.6213 75.8662C19.6647 76.4185 18.4415 76.0907 17.8893 75.1342L9.6511 60.8654C9.09881 59.9088 9.42656 58.6856 10.3831 58.1333L24.9357 49.7314C26.269 48.9616 26.269 47.0371 24.9357 46.2673L10.3844 37.8662C9.42782 37.3139 9.10007 36.0907 9.65236 35.1342L17.8905 20.8653C18.4428 19.9088 19.666 19.581 20.6226 20.1333L35.1719 28.5333C36.5052 29.3031 38.1719 28.3408 38.1719 26.8012V10Z"
        fill="#3543C2" />
</svg>