<svg xmlns="http://www.w3.org/2000/svg" width="96" height="96" viewBox="0 0 96 96" fill="none">
    <path fill-rule="evenodd" clip-rule="evenodd"
        d="M69.7232 16.1169C75.5606 21.9544 78.8401 29.8717 78.8401 38.1271C78.8401 53.5961 66.9445 76.6899 51.5979 80.1365L53.5703 86.7112C53.9552 87.9944 52.9943 89.2859 51.6546 89.2859H44.4459C43.1061 89.2859 42.1453 87.9944 42.5302 86.7112L44.4633 80.2675C28.811 77.3266 16.5859 53.8089 16.5859 38.1271C16.5859 29.8717 19.8654 21.9544 25.7028 16.1169C31.5403 10.2794 39.4576 7 47.713 7C55.9684 7 63.8857 10.2794 69.7232 16.1169ZM36.6331 21.6946C39.9061 19.4874 43.7653 18.3116 47.713 18.3189C48.4635 18.3189 49.1833 18.0208 49.7139 17.4901C50.2446 16.9594 50.5427 16.2397 50.5427 15.4892C50.5427 14.7387 50.2446 14.019 49.7139 13.4883C49.1833 12.9576 48.4635 12.6595 47.713 12.6595C42.6381 12.6491 37.6764 14.1597 33.4683 16.9964C29.2602 19.833 25.9987 23.8657 24.1045 28.5739C23.8224 29.2696 23.8281 30.0489 24.1205 30.7404C24.4129 31.4319 24.968 31.9788 25.6637 32.261C26.3594 32.5432 27.1387 32.5375 27.8302 32.2451C28.5217 31.9527 29.0687 31.3976 29.3509 30.7018C30.8236 27.0392 33.3601 23.9018 36.6331 21.6946Z"
        fill="#3543C2" />
</svg>