<svg xmlns="http://www.w3.org/2000/svg" width="96" height="96" viewBox="0 0 96 96" fill="none">
    <path
        d="M86.5723 35.3069C86.5723 29.3907 84.2221 23.7169 80.0388 19.5335C75.8554 15.3502 70.1816 13 64.2654 13H30.8051C24.8889 13 19.2151 15.3502 15.0317 19.5335C10.8483 23.7169 8.49815 29.3907 8.49815 35.3069V52.0371C8.49815 57.9532 10.8483 63.6271 15.0317 67.8104C19.2151 71.9938 24.8889 74.344 30.8051 74.344H60.8078L76.9525 82.4024C77.9174 82.8891 79.003 83.085 80.0772 82.9662C81.1514 82.8474 82.168 82.419 83.0032 81.7331C83.8335 81.0507 84.449 80.1429 84.7755 79.1189C85.102 78.0949 85.1256 76.9983 84.8435 75.9612L82.0552 65.5606C84.9998 61.6683 86.5866 56.9177 86.5723 52.0371V35.3069Z"
        fill="#3543C2" />
</svg>