<svg xmlns="http://www.w3.org/2000/svg" width="97" height="98" viewBox="0 0 97 98" fill="none">
    <path
        d="M36.8722 88.3279H3.85778C2.14754 88.3279 1.22626 86.3205 2.34138 85.0238L19.6851 64.856C20.8002 63.5593 19.879 61.5519 18.1687 61.5519H14.5356C12.8253 61.5519 11.904 59.5446 13.0192 58.2479L30.3629 38.08C31.478 36.7833 30.5567 34.776 28.8465 34.776H25.6736C23.8933 34.776 23.0003 32.6247 24.2572 31.3639L46.1336 9.42069C46.9152 8.63677 48.1848 8.63677 48.9664 9.42069L70.8428 31.3639C72.0997 32.6247 71.2067 34.776 69.4264 34.776H66.2535C64.5433 34.776 63.622 36.7833 64.7371 38.08L82.0808 58.2479C83.196 59.5446 82.2747 61.5519 80.5644 61.5519H76.9313C75.221 61.5519 74.2998 63.5593 75.4149 64.856L92.7586 85.0238C93.8737 86.3205 92.9525 88.3279 91.2422 88.3279H58.2278H36.8722Z"
        fill="#004D43" />
</svg>