<svg xmlns="http://www.w3.org/2000/svg" width="97" height="96" viewBox="0 0 97 96" fill="none">
    <path fill-rule="evenodd" clip-rule="evenodd"
        d="M68.5 75.78L75.6771 79.88C78.3286 81.3971 81.5886 81.3857 84.2315 79.8514C86.8743 78.32 88.5 75.4943 88.5 72.44V52.1314C88.5 49.0771 86.8743 46.2514 84.2315 44.72C81.5886 43.1857 78.3286 43.1743 75.6771 44.6914L68.5 48.7914V45.1429C68.5 40.4086 64.6629 36.5714 59.9286 36.5714H17.0714C12.3371 36.5714 8.5 40.4086 8.5 45.1429L8.5 79.4286C8.5 84.1629 12.3371 88 17.0714 88H59.9286C64.6629 88 68.5 84.1629 68.5 79.4286V75.78ZM52.9006 13.7143C46.592 13.7143 41.472 18.8343 41.472 25.1429C41.472 31.4514 46.592 36.5714 52.9006 36.5714C59.2092 36.5714 64.3292 31.4514 64.3292 25.1429C64.3292 18.8343 59.2092 13.7143 52.9006 13.7143ZM25.6429 8C17.7571 8 11.3571 14.4 11.3571 22.2857C11.3571 30.1714 17.7571 36.5714 25.6429 36.5714C33.5286 36.5714 39.9286 30.1714 39.9286 22.2857C39.9286 14.4 33.5286 8 25.6429 8Z"
        fill="#004D43" />
</svg>