<svg xmlns="http://www.w3.org/2000/svg" width="97" height="98" viewBox="0 0 97 98" fill="none">
    <path
        d="M64.9076 66.6969C65.9614 66.697 66.8157 65.8427 66.8157 64.7889V12.3722C66.8157 9.12524 63.4016 7.01641 60.4984 8.46562C39.0154 18.9961 24.9966 38.9647 22.1248 61.7677C21.795 64.3783 23.8295 66.6961 26.4633 66.6961L64.9076 66.6969Z"
        fill="#004D43" />
    <path
        d="M7.84195 76.1346L13.6118 89.1978C14.1013 90.3103 15.0501 91 16.0827 91H80.1608C81.1733 91 82.1053 90.3349 82.6049 89.2594L88.6631 76.1962C89.7258 73.9014 88.3747 71.0565 86.219 71.0565H10.3131C8.18414 71.0565 6.82945 73.8439 7.84195 76.1346Z"
        fill="#004D43" />
</svg>