<svg xmlns="http://www.w3.org/2000/svg" width="97" height="96" viewBox="0 0 97 96" fill="none">
    <path
        d="M52.7389 14.8648C50.5334 13.185 47.4949 13.185 45.2894 14.8648L13.0346 39.5724C11.7614 40.5337 10.9284 41.9851 10.6729 43.5697L6.06776 74.4551C5.80271 76.2348 6.32334 78.048 7.48766 79.3995C8.65196 80.751 10.37 81.5552 12.1544 81.5552H42.8716C46.2651 81.5552 49.0149 78.7904 49.0149 75.3783V52.5834C49.0149 51.5222 49.8621 50.6704 50.9175 50.6704C51.6322 50.6704 52.2995 51.0701 52.6024 51.7316L65.7364 78.1435C66.7777 80.2278 68.8981 81.5556 71.2266 81.5556H85.8752C87.6548 81.5556 89.3633 80.7656 90.5134 79.4093C91.6635 78.0578 92.1983 76.2399 91.9333 74.4649L87.3281 43.5796C87.0962 41.9949 86.249 40.5482 84.9664 39.5822L52.7117 14.8747L52.7353 14.8509L52.7389 14.8648Z"
        fill="#FE9A66" />
</svg>