<svg xmlns="http://www.w3.org/2000/svg" width="97" height="96" viewBox="0 0 97 96" fill="none">
    <path fill-rule="evenodd" clip-rule="evenodd"
        d="M51.8805 87.8632C44.2145 92.2892 34.412 89.6626 29.9861 81.9966L5.74218 40.005C5.1899 39.0484 5.51765 37.8252 6.47423 37.2729L22.2333 28.1744C23.6086 27.3804 23.5777 25.2841 22.4936 24.1237C21.9522 23.5442 21.4678 22.8945 21.0542 22.1782C18.126 17.1064 19.8638 10.6212 24.9355 7.69297C30.0073 4.76478 36.4926 6.50251 39.4208 11.5743C39.8343 12.2905 40.1548 13.035 40.3859 13.7936C40.8488 15.3126 42.6488 16.3875 44.0241 15.5935L60.6143 6.01514C61.5709 5.46286 62.794 5.79061 63.3463 6.74719L73.543 24.4083C74.4817 26.0341 72.6927 28.3976 70.8414 28.7087C69.6271 28.9128 68.428 29.3335 67.299 29.9853C62.2272 32.9135 60.4895 39.3988 63.4177 44.4705C66.3459 49.5423 72.8312 51.2801 77.903 48.3519C79.032 47.7 79.9958 46.8719 80.7797 45.9224C81.9748 44.4746 84.9161 44.1071 85.8547 45.7329L94.6041 60.8873C95.1564 61.8439 94.8287 63.0671 93.8721 63.6194L51.8805 87.8632Z"
        fill="#FE9A66" />
</svg>