<svg xmlns="http://www.w3.org/2000/svg" width="96" height="96" viewBox="0 0 96 96" fill="none">
    <path fill-rule="evenodd" clip-rule="evenodd"
        d="M48.5 91C72.2482 91 91.5 71.7482 91.5 48C91.5 24.2518 72.2482 5 48.5 5C24.7518 5 5.5 24.2518 5.5 48C5.5 71.7482 24.7518 91 48.5 91ZM40.3528 37.9143L44.8718 23.7768C45.3779 22.1934 46.8486 21.12 48.5103 21.12C50.172 21.12 51.6426 22.1934 52.1488 23.7768L56.6677 37.9143H71.3572C73.0075 37.9143 74.4705 38.9724 74.9862 40.5405C75.5019 42.1066 74.9537 43.8275 73.6282 44.8073L61.689 53.6218L66.2366 67.8472C66.7409 69.4248 66.1717 71.1495 64.8232 72.1141C63.4767 73.0805 61.6623 73.0671 60.3291 72.0835L48.5103 63.355L36.6914 72.0835C35.3583 73.0671 33.5438 73.0805 32.1973 72.1141C30.8489 71.1495 30.2797 69.4248 30.7839 67.8472L35.3316 53.6218L23.3924 44.8073C22.0669 43.8275 21.5187 42.1066 22.0344 40.5405C22.5501 38.9724 24.0131 37.9143 25.6633 37.9143H40.3528Z"
        fill="#C77DF6" />
</svg>