<svg xmlns="http://www.w3.org/2000/svg" width="96" height="96" viewBox="0 0 96 96" fill="none">
    <path fill-rule="evenodd" clip-rule="evenodd"
        d="M10.2978 8C9.30488 8 8.5 8.80488 8.5 9.79775V86.2022C8.5 87.1951 9.30488 88 10.2978 88H86.7022C87.6951 88 88.5 87.1951 88.5 86.2022V9.79775C88.5 8.80488 87.6951 8 86.7022 8H10.2978ZM17.5393 15.2413C16.5464 15.2413 15.7415 16.0462 15.7415 17.039V78.9608C15.7415 79.9536 16.5464 80.7585 17.5393 80.7585H79.461C80.4539 80.7585 81.2588 79.9537 81.2588 78.9608V17.039C81.2588 16.0462 80.4539 15.2413 79.461 15.2413H17.5393Z"
        fill="#C77DF6" />
    <rect x="22.6396" y="22.138" width="51.7241" height="51.7241" rx="2" fill="#C77DF6" />
</svg>