<svg xmlns="http://www.w3.org/2000/svg" width="96" height="96" viewBox="0 0 96 96" fill="none">
    <path fill-rule="evenodd" clip-rule="evenodd"
        d="M33.8678 30.6145V61.7141C31.4259 59.8768 28.391 58.7902 25.1049 58.7902C17.043 58.7902 10.5 65.3332 10.5 73.3951C10.5 81.457 17.043 88 25.1049 88C33.1668 88 39.7097 81.457 39.7097 73.3951V43.2916L77.6824 28.0587V50.0302C75.2405 48.1929 72.2056 47.1063 68.9195 47.1063C60.8576 47.1063 54.3146 53.6493 54.3146 61.7112C54.3146 69.7731 60.8576 76.3161 68.9195 76.3161C76.9814 76.3161 83.5244 69.7731 83.5244 61.7112V17.7622C83.5244 14.8559 82.0814 12.1364 79.6746 10.5065C77.2677 8.87663 74.2064 8.54655 71.5074 9.62731L39.3768 22.4796C36.0498 23.8087 33.8678 27.0305 33.8678 30.6145Z"
        fill="#C77DF6" />
</svg>