<svg width="548" height="400" viewBox="0 0 548 400" fill="none" xmlns="http://www.w3.org/2000/svg">
<path fill-rule="evenodd" clip-rule="evenodd" d="M344.33 234.437C333.543 215.754 339.944 191.863 358.627 181.077L442.39 132.716C443.828 131.886 445.665 132.379 446.495 133.816L467.14 169.574C468.333 171.64 471.439 171.588 473.014 169.796C474.566 168.03 476.427 166.484 478.576 165.243C489.159 159.133 502.691 162.759 508.8 173.342C514.91 183.924 511.284 197.456 500.702 203.566C498.553 204.807 496.283 205.646 493.978 206.107C491.638 206.575 490.04 209.239 491.234 211.305L512.885 248.806C513.714 250.243 513.222 252.081 511.785 252.91L471.101 276.399C468.659 277.809 465.306 275.198 465.254 272.378C465.187 268.758 464.228 265.104 462.29 261.746C456.18 251.163 442.648 247.538 432.066 253.647C421.483 259.757 417.857 273.289 423.967 283.872C425.905 287.229 428.591 289.887 431.693 291.755C434.108 293.21 434.694 297.419 432.252 298.829L396.795 319.3C395.358 320.13 393.52 319.637 392.69 318.2L344.33 234.437Z" fill="#CDEB69"/>
</svg>
