<svg width="548" height="400" viewBox="0 0 548 400" fill="none" xmlns="http://www.w3.org/2000/svg">
<g clip-path="url(#clip0_2811_40335)">
<path d="M52 89.0792C51.9964 103.134 57.5772 116.614 67.515 126.555C77.4527 136.496 90.9333 142.083 104.991 142.088V89.0792L52 89.0792ZM104.991 142.088H158V89.0792C151.037 89.0783 144.143 90.4489 137.71 93.1126C131.278 95.7764 125.433 99.6812 120.51 104.604C115.588 109.526 111.684 115.371 109.021 121.802C106.358 128.234 104.989 135.127 104.991 142.088ZM104.991 142.088L104.991 195.079H158C158 188.12 156.63 181.229 153.966 174.799C151.302 168.369 147.397 162.527 142.475 157.606C137.553 152.686 131.709 148.782 125.277 146.12C118.846 143.457 111.953 142.087 104.991 142.088ZM104.991 142.088H52L52 195.079C66.0557 195.076 79.5348 189.492 89.4725 179.554C99.4101 169.617 104.992 156.14 104.991 142.088Z" fill="#FE9A66"/>
</g>
<defs>
<clipPath id="clip0_2811_40335">
<rect width="106.17" height="106.17" fill="white" transform="translate(52 89.0792)"/>
</clipPath>
</defs>
</svg>
