<svg xmlns="http://www.w3.org/2000/svg" width="28" height="28" viewBox="0 0 28 28">
    <path fill-rule="evenodd" clip-rule="evenodd"
        d="M22.3847 7.37931C22.8718 6.8922 22.8718 6.10244 22.3847 5.61533C21.8976 5.12822 21.1078 5.12822 20.6207 5.61533L14 12.236L7.37931 5.61533C6.8922 5.12822 6.10244 5.12822 5.61533 5.61533C5.12822 6.10244 5.12822 6.8922 5.61533 7.37931L12.236 14L5.61533 20.6207C5.12822 21.1078 5.12822 21.8976 5.61533 22.3847C6.10244 22.8718 6.8922 22.8718 7.37931 22.3847L14 15.764L20.6207 22.3847C21.1078 22.8718 21.8976 22.8718 22.3847 22.3847C22.8718 21.8976 22.8718 21.1078 22.3847 20.6207L15.764 14L22.3847 7.37931Z" />
</svg>