<svg xmlns="http://www.w3.org/2000/svg" width="40" height="40" viewBox="0 0 40 40">
    <path fill-rule="evenodd" clip-rule="evenodd"
        d="M31.9781 10.5419C32.674 9.846 32.674 8.71777 31.9781 8.0219C31.2822 7.32603 30.154 7.32603 29.4581 8.0219L20 17.48L10.5419 8.0219C9.846 7.32603 8.71777 7.32603 8.0219 8.0219C7.32603 8.71777 7.32603 9.846 8.0219 10.5419L17.48 20L8.0219 29.4581C7.32603 30.154 7.32603 31.2822 8.0219 31.9781C8.71777 32.674 9.846 32.674 10.5419 31.9781L20 22.52L29.4581 31.9781C30.154 32.674 31.2822 32.674 31.9781 31.9781C32.674 31.2822 32.674 30.154 31.9781 29.4581L22.52 20L31.9781 10.5419Z" />
</svg>