<svg xmlns="http://www.w3.org/2000/svg" width="512" height="512" viewBox="0 0 512 512">
    <path
        d="M1815 4614 c-547 -96 -972 -518 -1082 -1071 -25 -130 -23 -366 6 -500 40 -189 122 -374 234 -527 40 -54 343 -364 921 -942 936 -936 934 -934 1122 -1011 140 -57 253 -76 419 -70 168 6 258 27 394 93 124 59 198 113 296 215 162 169 249 356 276 595 20 164 -11 357 -81 511 -73 160 -97 187 -937 1024 l-798 797 -85 41 c-122 58 -201 74 -335 68 -233 -10 -417 -112 -545 -303 -141 -212 -155 -454 -39 -694 41 -84 46 -89 588 -633 432 -433 554 -550 583 -559 125 -37 240 99 182 215 -9 18 -254 271 -544 562 -501 503 -529 533 -550 590 -31 82 -31 198 0 277 30 80 104 159 188 200 62 31 74 33 167 33 173 0 111 51 963 -799 409 -407 764 -768 789 -801 99 -130 147 -271 146 -435 0 -167 -45 -296 -148 -429 -205 -262 -571 -337 -878 -180 -80 41 -103 63 -930 888 -492 490 -873 879 -908 924 -189 249 -252 582 -168 888 80 295 314 554 606 670 132 53 246 72 408 66 154 -5 239 -23 370 -78 164 -68 189 -90 850 -749 341 -341 633 -624 648 -629 130 -49 255 77 199 201 -26 58 -1199 1228 -1318 1315 -159 117 -372 206 -564 238 -117 18 -336 18 -445 -1z">
    </path>
</svg>