<svg xmlns="http://www.w3.org/2000/svg" width="41" height="40" viewBox="0 0 41 40">
    <path
        d="M15.8933 11C13.666 11.0067 11.8621 12.8106 11.8555 15.0379V24.8177C11.8621 27.045 13.666 28.8489 15.8933 28.8556H25.6732C27.9004 28.8489 29.7043 27.045 29.711 24.8177V15.0379C29.7043 12.8106 27.9004 11.0067 25.6732 11H15.8933ZM20.856 24.2632C19.1317 24.2633 17.5771 23.2248 16.9171 21.6318C16.2571 20.0388 16.6217 18.2051 17.8409 16.9858C19.0601 15.7664 20.8938 15.4016 22.4868 16.0614C24.0799 16.7213 25.1186 18.2758 25.1186 20.0001C25.1186 22.3543 23.2102 24.2629 20.856 24.2632ZM26.242 15.7977C25.7434 15.7977 25.294 15.4973 25.1032 15.0367C24.9125 14.5761 25.018 14.046 25.3705 13.6935C25.7231 13.341 26.2532 13.2356 26.7138 13.4265C27.1744 13.6173 27.4746 14.0668 27.4745 14.5654C27.4745 14.8922 27.3447 15.2057 27.1135 15.4368C26.8823 15.6679 26.5688 15.7977 26.242 15.7977Z" />
</svg>