<svg width="548" height="400" viewBox="0 0 548 400" fill="none" xmlns="http://www.w3.org/2000/svg">
<path fill-rule="evenodd" clip-rule="evenodd" d="M454.371 165.909C454.179 166.568 453.696 167.103 453.059 167.36L427.955 177.482C425.985 178.276 426.128 181.112 428.169 181.704L481.01 197.036C483.05 197.628 484.689 195.309 483.45 193.583L467.662 171.597C467.262 171.039 467.14 170.329 467.331 169.669L475.574 141.258V141.258C475.657 140.972 475.823 140.714 476.069 140.545L544.074 93.6683C545.627 92.5979 545.24 90.2043 543.428 89.6788L432.903 57.6109C431.091 57.0853 429.483 58.8998 430.221 60.635L462.578 136.63C462.695 136.904 462.697 137.211 462.614 137.497V137.497L454.371 165.909Z" fill="#3543C2"/>
</svg>
