<svg width="616" height="277" viewBox="0 0 616 277" fill="none" xmlns="http://www.w3.org/2000/svg">
    <path opacity="0.1" fill-rule="evenodd" clip-rule="evenodd"
        d="M139.212 140.929C149.199 173.753 179.709 197.638 215.798 197.638C236.752 197.638 255.826 189.586 270.093 176.407C271.664 174.956 274.257 175.627 274.706 177.717C275.893 183.25 276.518 188.991 276.518 194.878C276.518 239.845 240.065 276.298 195.098 276.298C150.131 276.298 113.678 239.845 113.678 194.878C113.678 173.24 122.118 153.574 135.886 138.992C103.062 148.979 79.1777 179.489 79.1777 215.578C79.1777 236.533 87.2299 255.606 100.409 269.874C101.86 271.444 101.189 274.038 99.0983 274.486C93.5658 275.673 87.8248 276.298 81.9378 276.298C36.9709 276.298 0.518062 239.845 0.518058 194.878C0.518055 149.911 36.9709 113.459 81.9378 113.459C103.575 113.459 123.241 121.899 137.823 135.667C127.837 102.843 97.3263 78.9582 61.2374 78.9582C40.2831 78.9582 21.2095 87.0104 6.94205 100.189C5.37136 101.64 2.77775 100.969 2.32924 98.8788C1.14236 93.3463 0.517578 87.6053 0.517578 81.7183C0.517574 36.7514 36.9704 0.298576 81.9373 0.298574C126.904 0.298572 163.357 36.7514 163.357 81.7183C163.357 103.356 154.917 123.022 141.149 137.604C173.973 127.617 197.857 97.1068 197.857 61.0179C197.857 40.0636 189.805 20.99 176.626 6.72257C175.175 5.15188 175.846 2.55827 177.937 2.10976C183.469 0.922881 189.21 0.298096 195.097 0.298096C240.064 0.298096 276.517 36.751 276.517 81.7178C276.517 126.685 240.064 163.138 195.097 163.138C173.46 163.138 153.794 154.697 139.212 140.929Z"
        fill="#3543C2" />
    <path opacity="0.2"
        d="M614.654 93.8103C603.339 4.09124 511.029 -19.6505 455.014 40.5842C398.989 -19.6505 306.679 4.09124 295.375 93.8103C284.404 181.205 380.99 252.556 455.014 276.298C529.027 252.614 625.671 181.205 614.654 93.8103Z"
        fill="#C77DF6" />
</svg>