<svg xmlns="http://www.w3.org/2000/svg" width="443" height="443" viewBox="0 0 443 443" fill="none">
    <mask id="path-1-inside-1_3126_10827" fill="white">
        <path fill-rule="evenodd" clip-rule="evenodd"
            d="M113.248 0C164.179 0 207.258 33.6214 221.5 79.8804C235.742 33.6214 278.821 0 329.752 0C392.297 0 443 50.7028 443 113.248C443 164.179 409.378 207.258 363.119 221.5C409.376 235.743 442.996 278.821 442.996 329.751C442.996 392.296 392.293 442.999 329.748 442.999C278.819 442.999 235.742 409.381 221.498 363.125C207.254 409.381 164.177 442.999 113.248 442.999C50.7028 442.999 0 392.296 0 329.751C0 278.82 33.6207 235.742 79.879 221.499C33.6207 207.257 0 164.179 0 113.248C0 50.7028 50.7028 0 113.248 0Z" />
    </mask>
    <path
        d="M221.5 79.8804L217.677 81.0574L221.5 93.4745L225.323 81.0574L221.5 79.8804ZM363.119 221.5L361.942 217.677L349.525 221.5L361.942 225.323L363.119 221.5ZM221.498 363.125L225.321 361.948L221.498 349.534L217.675 361.948L221.498 363.125ZM79.879 221.499L81.056 225.322L93.4724 221.499L81.056 217.677L79.879 221.499ZM225.323 78.7035C210.579 30.8139 165.984 -4 113.248 -4V4C162.374 4 203.937 36.429 217.677 81.0574L225.323 78.7035ZM329.752 -4C277.016 -4 232.421 30.8139 217.677 78.7035L225.323 81.0574C239.063 36.429 280.626 4 329.752 4V-4ZM447 113.248C447 48.4937 394.506 -4 329.752 -4V4C390.088 4 439 52.9119 439 113.248H447ZM364.296 225.323C412.186 210.579 447 165.984 447 113.248H439C439 162.374 406.571 203.937 361.942 217.677L364.296 225.323ZM361.942 225.323C406.568 239.064 438.996 280.626 438.996 329.751H446.996C446.996 277.016 412.184 232.423 364.296 217.677L361.942 225.323ZM438.996 329.751C438.996 390.087 390.084 438.999 329.748 438.999V446.999C394.502 446.999 446.996 394.505 446.996 329.751H438.996ZM329.748 438.999C280.624 438.999 239.063 406.573 225.321 361.948L217.675 364.303C232.421 412.189 277.014 446.999 329.748 446.999V438.999ZM113.248 446.999C165.982 446.999 210.574 412.189 225.321 364.303L217.675 361.948C203.933 406.573 162.372 438.999 113.248 438.999V446.999ZM-4 329.751C-4 394.505 48.4937 446.999 113.248 446.999V438.999C52.9119 438.999 4 390.087 4 329.751H-4ZM78.7019 217.677C30.8131 232.421 -4 277.015 -4 329.751H4C4 280.625 36.4283 239.063 81.056 225.322L78.7019 217.677ZM-4 113.248C-4 165.984 30.8131 210.578 78.7019 225.322L81.056 217.677C36.4283 203.936 4 162.374 4 113.248H-4ZM113.248 -4C48.4936 -4 -4 48.4937 -4 113.248H4C4 52.9119 52.9119 4 113.248 4V-4Z"
        fill="#C77DF6" mask="url(#path-1-inside-1_3126_10827)" />
</svg>