<svg xmlns="http://www.w3.org/2000/svg" width="192" height="32" viewBox="0 0 192 32" fill="none">

    <path
        d="M14.4551 28.7671C12.3856 28.7671 10.4657 28.5051 8.70632 27.981C6.94692 27.4569 5.41747 26.6655 4.11798 25.6013C2.81848 24.5424 1.80776 23.2108 1.08582 21.6119C0.363874 20.0129 0.000228882 18.1412 0.000228882 15.9968C0.000228882 13.8523 0.363874 11.9753 1.08582 10.3603C1.80776 8.7506 2.81848 7.41367 4.11798 6.35482C5.41747 5.29597 6.94692 4.49916 8.70632 3.97508C10.4657 3.451 12.3802 3.18896 14.4551 3.18896C16.53 3.18896 18.4392 3.451 20.1986 3.97508C21.958 4.49916 23.4874 5.29062 24.7869 6.35482C26.0864 7.41367 27.0971 8.7506 27.8191 10.3603C28.541 11.9699 28.9047 13.847 28.9047 15.9968C28.9047 18.1466 28.541 20.0129 27.8191 21.6119C27.0971 23.2108 26.0864 24.5371 24.7869 25.6013C23.4874 26.6601 21.958 27.4516 20.1986 27.981C18.4392 28.5051 16.5247 28.7671 14.4551 28.7671ZM14.4551 10.7613C13.53 10.7613 12.8508 11.2426 12.4123 12.2052C11.9738 13.1678 11.7599 14.4352 11.7599 16.0021C11.7599 17.569 11.9791 18.8471 12.4123 19.8204C12.8508 20.7937 13.53 21.2803 14.4551 21.2803C15.3803 21.2803 16.0594 20.7937 16.4926 19.8204C16.9311 18.8471 17.145 17.5743 17.145 16.0021C17.145 14.4299 16.9258 13.1625 16.4926 12.2052C16.0541 11.2426 15.3749 10.7613 14.4551 10.7613Z"
        fill="white" stroke="white" stroke-width="0.16" />
    <path
        d="M44.2147 14.0188H43.6532L41.8938 28.3935H29.2785L31.7866 17.912C31.9845 17.0617 32.2626 16.2595 32.6102 15.4948C32.9578 14.7354 33.5139 14.0669 34.2787 13.4947C35.038 12.9225 36.0541 12.4626 37.3269 12.1257C38.5996 11.7888 40.2467 11.623 42.2682 11.623V11.0615H31.5246V3.68701H52.7123L58.1402 28.3935H45.9367L44.2147 14.0188Z"
        fill="white" stroke="white" stroke-width="0.16" />
    <path
        d="M75.5082 28.3932V21.5428L75.4708 21.5054H74.9467C74.9467 23.8263 74.2889 25.6124 72.9788 26.8584C71.6686 28.1044 69.7915 28.7301 67.3476 28.7301C61.5346 28.7301 58.6255 25.1365 58.6255 17.9491V3.68674H70.3423V16.5641C70.3423 18.1096 70.4814 19.1951 70.7541 19.8208C71.0268 20.4465 71.4546 20.7567 72.0269 20.7567C72.4493 20.7567 72.8076 20.6069 73.0911 20.3075C73.3798 20.008 73.5991 19.6711 73.7488 19.2967C73.9253 18.8475 74.0483 18.3502 74.1232 17.7994V3.68674H85.2785V28.3932H75.5082Z"
        fill="white" stroke="white" stroke-width="0.16" />
    <path
        d="M117.174 21.8046C117.174 22.8527 116.928 23.7886 116.447 24.6121C115.96 25.4357 115.164 26.1255 114.051 26.687C112.939 27.2485 111.474 27.671 109.65 27.9598C107.827 28.2486 105.581 28.3876 102.912 28.3876H86.8528V3.68647H96.6231V10.5369H97.1846C97.1846 9.26415 97.4145 8.16787 97.8744 7.24271C98.3343 6.31755 98.9868 5.56887 99.821 4.99667C100.655 4.42446 101.65 3.99664 102.794 3.72391C103.944 3.45117 105.201 3.31213 106.575 3.31213C107.821 3.31213 108.96 3.43513 109.982 3.68647C111.003 3.93782 111.885 4.31216 112.623 4.8095C113.361 5.30684 113.928 5.92717 114.329 6.65981C114.73 7.3978 114.928 8.23739 114.928 9.18394C114.928 10.2054 114.73 11.0984 114.329 11.8631C113.928 12.6225 113.383 13.2536 112.682 13.7509C111.982 14.2482 111.153 14.6172 110.196 14.8579C109.233 15.0932 108.19 15.2162 107.067 15.2162V15.7777C108.912 15.7777 110.479 15.9167 111.768 16.1895C113.051 16.4622 114.094 16.8633 114.891 17.3873C115.688 17.9114 116.271 18.5478 116.629 19.2965C116.993 20.0452 117.174 20.8794 117.174 21.8046ZM101.789 10.4995C101.163 10.4995 100.629 10.6546 100.179 10.9701C99.7301 11.2802 99.3451 11.6278 99.0189 11.9968C98.6445 12.446 98.3183 12.9434 98.0456 13.4942V14.3178H101.19C102.014 14.3178 102.559 14.1038 102.821 13.6814C103.083 13.2589 103.211 12.8097 103.211 12.3337C103.211 11.8364 103.099 11.4032 102.875 11.0396C102.65 10.676 102.286 10.4941 101.789 10.4941V10.4995ZM105.458 19.1093C105.458 18.3339 105.089 17.8312 104.356 17.5959C103.618 17.3606 102.564 17.2376 101.19 17.2376H98.0456V20.981H101.19C102.564 20.981 103.618 20.8634 104.356 20.6227C105.094 20.3874 105.458 19.8794 105.458 19.1093Z"
        fill="white" stroke="white" stroke-width="0.16" />
    <path
        d="M147.236 19.1844C147.236 20.6551 147.028 21.9599 146.616 23.099C146.204 24.2327 145.514 25.1953 144.541 25.9814C143.568 26.7675 142.284 27.3665 140.686 27.7782C139.087 28.19 137.119 28.3932 134.771 28.3932H118V3.68674H129.156V14.7672H129.717C129.717 14.0667 129.883 13.3929 130.225 12.7458C130.562 12.0987 131.06 11.5265 131.723 11.0452C132.386 10.5586 133.215 10.1735 134.209 9.88475C135.209 9.59597 136.37 9.45693 137.691 9.45693C139.188 9.45693 140.53 9.68688 141.712 10.1468C142.899 10.6067 143.905 11.2698 144.728 12.1308C145.552 12.9918 146.178 14.0239 146.6 15.2218C147.023 16.4197 147.236 17.7406 147.236 19.1898V19.1844ZM135.52 18.0614C135.471 17.5373 135.156 17.0988 134.584 16.7512C134.012 16.4036 133.049 16.2272 131.701 16.2272H129.156V21.0187H131.888C133.086 21.0187 134.012 20.8048 134.659 20.3823C135.306 19.9599 135.594 19.1844 135.52 18.0614Z"
        fill="white" stroke="white" stroke-width="0.16" />
    <path
        d="M163.95 19.7296C164.94 19.7296 165.897 19.612 166.827 19.366C167.758 19.1253 168.592 18.858 169.341 18.5692C170.207 18.2323 171.031 17.8472 171.801 17.4141L174.405 25.4838C172.715 26.4036 170.876 27.0934 168.886 27.564C166.897 28.0346 164.865 28.2699 162.79 28.2699C160.207 28.2699 157.998 27.9758 156.148 27.3822C154.303 26.794 152.79 25.949 151.608 24.8474C150.426 23.7511 149.56 22.4088 149.003 20.8313C148.447 19.2537 148.169 17.4622 148.169 15.4568C148.169 13.7455 148.463 12.1466 149.057 10.6599C149.645 9.17857 150.517 7.88442 151.661 6.78814C152.806 5.69185 154.234 4.83087 155.95 4.19984C157.661 3.57415 159.64 3.25864 161.886 3.25864C163.694 3.25864 165.335 3.41372 166.806 3.72924C168.277 4.04475 169.533 4.49931 170.571 5.1036C171.608 5.70789 172.41 6.45123 172.977 7.32826C173.544 8.21063 173.828 9.20531 173.828 10.3123C173.828 11.7615 173.496 12.9113 172.833 13.7669C172.17 14.6226 171.319 15.2857 170.282 15.7563C169.245 16.2269 168.1 16.5317 166.843 16.6814C165.587 16.8258 164.383 16.9007 163.223 16.9007H159.603C159.726 17.8205 160.111 18.5157 160.763 18.997C161.415 19.4783 162.474 19.7189 163.945 19.7189L163.95 19.7296ZM162.79 10.3925C161.752 10.3925 160.988 10.7722 160.49 11.5316C159.993 12.2909 159.688 13.2963 159.565 14.553H161.956C162.822 14.553 163.56 14.3926 164.164 14.0664C164.769 13.7402 165.068 13.2054 165.068 12.4567C165.068 11.831 164.897 11.3284 164.56 10.954C164.223 10.5797 163.629 10.3925 162.785 10.3925H162.79Z"
        fill="white" stroke="white" stroke-width="0.16" />
    <circle cx="181.6" cy="23.1999" r="4.8" fill="white" />

</svg>