<svg xmlns="http://www.w3.org/2000/svg" width="240" height="40" viewBox="0 0 240 40" fill="none">

    <path
        d="M18.0686 35.959C15.4817 35.959 13.0819 35.6315 10.8826 34.9764C8.68337 34.3213 6.77156 33.332 5.14719 32.0017C3.52281 30.6782 2.25941 29.0137 1.35699 27.015C0.454557 25.0163 0 22.6766 0 19.9961C0 17.3155 0.454557 14.9692 1.35699 12.9505C2.25941 10.9384 3.52281 9.26721 5.14719 7.94364C6.77156 6.62008 8.68337 5.62407 10.8826 4.96897C13.0819 4.31388 15.475 3.98633 18.0686 3.98633C20.6623 3.98633 23.0487 4.31388 25.2479 4.96897C27.4472 5.62407 29.359 6.6134 30.9834 7.94364C32.6077 9.26721 33.8712 10.9384 34.7736 12.9505C35.676 14.9625 36.1306 17.3088 36.1306 19.9961C36.1306 22.6833 35.676 25.0163 34.7736 27.015C33.8712 29.0137 32.6077 30.6715 30.9834 32.0017C29.359 33.3253 27.4472 34.3146 25.2479 34.9764C23.0487 35.6315 20.6556 35.959 18.0686 35.959ZM18.0686 13.4518C16.9122 13.4518 16.0632 14.0534 15.5151 15.2567C14.9669 16.4599 14.6996 18.0442 14.6996 20.0028C14.6996 21.9614 14.9736 23.559 15.5151 24.7756C16.0632 25.9922 16.9122 26.6005 18.0686 26.6005C19.2251 26.6005 20.074 25.9922 20.6155 24.7756C21.1636 23.559 21.431 21.9681 21.431 20.0028C21.431 18.0375 21.1569 16.4532 20.6155 15.2567C20.0673 14.0534 19.2184 13.4518 18.0686 13.4518Z"
        fill="black" stroke="white" stroke-width="0.2" />
    <path
        d="M55.2679 17.5232H54.566L52.3668 35.4915H36.5977L39.7328 22.3896C39.9801 21.3267 40.3277 20.324 40.7622 19.3681C41.1967 18.4189 41.8919 17.5833 42.8478 16.8681C43.797 16.1528 45.0671 15.5779 46.6581 15.1568C48.249 14.7357 50.3079 14.5284 52.8347 14.5284V13.8265H39.4052V4.6084H65.8898L72.6747 35.4915H57.4204L55.2679 17.5232Z"
        fill="black" stroke="white" stroke-width="0.2" />
    <path
        d="M94.3847 35.4915V26.9285L94.3379 26.8817H93.6828C93.6828 29.7828 92.8606 32.0155 91.2229 33.573C89.5851 35.1305 87.2388 35.9126 84.1839 35.9126C76.9177 35.9126 73.2812 31.4206 73.2812 22.4364V4.6084H87.9273V20.705C87.9273 22.6369 88.1011 23.9939 88.442 24.776C88.783 25.5581 89.3177 25.9458 90.033 25.9458C90.5611 25.9458 91.009 25.7586 91.3632 25.3843C91.7242 25.01 91.9983 24.5888 92.1855 24.1209C92.406 23.5594 92.5598 22.9377 92.6534 22.2492V4.6084H106.598V35.4915H94.3847Z"
        fill="black" stroke="white" stroke-width="0.2" />
    <path
        d="M146.468 27.2557C146.468 28.5659 146.161 29.7357 145.559 30.7651C144.951 31.7946 143.955 32.6569 142.565 33.3588C141.174 34.0607 139.343 34.5887 137.063 34.9497C134.784 35.3107 131.976 35.4845 128.64 35.4845H108.566V4.60806H120.779V13.1711H121.481C121.481 11.5802 121.769 10.2098 122.343 9.05336C122.918 7.89691 123.734 6.96106 124.777 6.2458C125.82 5.53055 127.063 4.99577 128.493 4.65486C129.931 4.31394 131.501 4.14014 133.219 4.14014C134.777 4.14014 136.201 4.29388 137.478 4.60806C138.754 4.92224 139.857 5.39017 140.78 6.01184C141.702 6.63351 142.411 7.40893 142.912 8.32473C143.414 9.24721 143.661 10.2967 143.661 11.4799C143.661 12.7567 143.414 13.873 142.912 14.8289C142.411 15.7781 141.729 16.5669 140.853 17.1886C139.978 17.8103 138.941 18.2715 137.745 18.5723C136.542 18.8664 135.238 19.0202 133.834 19.0202V19.7221C136.141 19.7221 138.099 19.8959 139.71 20.2368C141.315 20.5777 142.618 21.0791 143.614 21.7342C144.61 22.3892 145.339 23.1847 145.787 24.1206C146.241 25.0564 146.468 26.0992 146.468 27.2557ZM127.237 13.1243C126.455 13.1243 125.786 13.3182 125.225 13.7126C124.663 14.1003 124.182 14.5348 123.774 14.996C123.306 15.5575 122.898 16.1792 122.557 16.8677V17.8972H126.488C127.517 17.8972 128.199 17.6298 128.527 17.1017C128.854 16.5736 129.015 16.0121 129.015 15.4172C129.015 14.7955 128.874 14.254 128.594 13.7995C128.313 13.3449 127.858 13.1176 127.237 13.1176V13.1243ZM131.822 23.8866C131.822 22.9173 131.361 22.289 130.445 21.9949C129.523 21.7007 128.206 21.547 126.488 21.547H122.557V26.2262H126.488C128.206 26.2262 129.523 26.0792 130.445 25.7784C131.368 25.4842 131.822 24.8492 131.822 23.8866Z"
        fill="black" stroke="white" stroke-width="0.2" />
    <path
        d="M184.045 23.9805C184.045 25.8188 183.784 27.4499 183.27 28.8737C182.755 30.2908 181.893 31.4941 180.676 32.4767C179.459 33.4594 177.855 34.2081 175.856 34.7228C173.858 35.2375 171.398 35.4915 168.463 35.4915H147.5V4.6084H161.444V18.459H162.146C162.146 17.5833 162.353 16.741 162.781 15.9322C163.202 15.1234 163.824 14.4081 164.653 13.8065C165.482 13.1982 166.518 12.7169 167.761 12.3559C169.011 11.9949 170.462 11.8211 172.113 11.8211C173.985 11.8211 175.662 12.1086 177.14 12.6835C178.624 13.2583 179.88 14.0872 180.91 15.1635C181.939 16.2397 182.721 17.5298 183.25 19.0272C183.778 20.5246 184.045 22.1757 184.045 23.9872V23.9805ZM169.399 22.5768C169.339 21.9217 168.944 21.3735 168.229 20.939C167.514 20.5045 166.311 20.2839 164.626 20.2839H161.444V26.2734H164.86C166.357 26.2734 167.514 26.006 168.323 25.4779C169.132 24.9498 169.493 23.9805 169.399 22.5768Z"
        fill="black" stroke="white" stroke-width="0.2" />
    <path
        d="M204.937 24.662C206.174 24.662 207.371 24.5149 208.534 24.2074C209.697 23.9066 210.74 23.5724 211.675 23.2114C212.758 22.7903 213.788 22.309 214.75 21.7675L218.006 31.8547C215.894 33.0044 213.594 33.8668 211.107 34.455C208.621 35.0433 206.08 35.3374 203.487 35.3374C200.258 35.3374 197.497 34.9697 195.184 34.2277C192.878 33.4924 190.986 32.4362 189.509 31.0592C188.032 29.6888 186.949 28.011 186.254 26.039C185.559 24.067 185.211 21.8277 185.211 19.3209C185.211 17.1819 185.579 15.1831 186.321 13.3248C187.056 11.4732 188.146 9.85547 189.576 8.48512C191.007 7.11476 192.791 6.03853 194.937 5.24974C197.076 4.46764 199.55 4.07324 202.357 4.07324C204.616 4.07324 206.669 4.2671 208.507 4.66149C210.345 5.05589 211.916 5.62408 213.213 6.37945C214.51 7.13481 215.512 8.06398 216.221 9.16027C216.93 10.2632 217.284 11.5066 217.284 12.8903C217.284 14.7018 216.869 16.139 216.041 17.2086C215.212 18.2781 214.149 19.107 212.852 19.6953C211.555 20.2835 210.125 20.6646 208.554 20.8517C206.983 21.0322 205.479 21.1258 204.028 21.1258H199.503C199.656 22.2756 200.138 23.1446 200.953 23.7462C201.769 24.3478 203.092 24.6486 204.931 24.6486L204.937 24.662ZM203.487 12.9906C202.19 12.9906 201.234 13.4652 200.612 14.4144C199.991 15.3636 199.61 16.6203 199.456 18.1912H202.444C203.527 18.1912 204.449 17.9907 205.205 17.5829C205.96 17.1752 206.334 16.5067 206.334 15.5709C206.334 14.7887 206.121 14.1604 205.699 13.6925C205.278 13.2245 204.536 12.9906 203.48 12.9906H203.487Z"
        fill="black" stroke="white" stroke-width="0.2" />
    <circle cx="227" cy="29" r="6" fill="#C77DF6" />


</svg>