<svg width="680" height="332" viewBox="0 0 680 332" fill="none" xmlns="http://www.w3.org/2000/svg">
    <g opacity="0.1">
        <path fill-rule="evenodd" clip-rule="evenodd"
            d="M600.433 61.8661H642.52C652.23 61.8661 661.538 65.721 668.394 72.5769C675.262 79.445 679.117 88.7528 679.117 98.4633V295.039C679.117 315.252 662.734 331.636 642.52 331.636H374.141C353.927 331.636 337.544 315.252 337.544 295.039V98.4633C337.544 88.7528 341.399 79.445 348.267 72.5769C355.123 65.721 364.431 61.8661 374.141 61.8661L416.228 61.8661C421.791 61.8661 426.646 58.0966 428.036 52.7047L430.805 41.9329C434.965 25.7692 449.555 14.4607 466.244 14.4607L550.417 14.4607C567.106 14.4607 581.696 25.7692 585.855 41.9329L588.625 52.7047C590.015 58.0966 594.87 61.8661 600.433 61.8661ZM508.331 123.032C467.265 123.032 433.917 156.38 433.917 197.446C433.917 238.512 467.265 271.86 508.331 271.86C549.397 271.86 582.745 238.512 582.745 197.446C582.745 156.38 549.397 123.032 508.331 123.032Z"
            fill="#3543C2" />
        <path
            d="M508.326 180.368C498.896 180.368 491.247 188.016 491.247 197.446C491.247 204.18 485.782 209.645 479.048 209.645C472.314 209.645 466.849 204.18 466.849 197.446C466.849 174.549 485.428 155.969 508.326 155.969C515.06 155.969 520.525 161.435 520.525 168.169C520.525 174.902 515.06 180.368 508.326 180.368Z"
            fill="#3543C2" />
    </g>
    <path opacity="0.1"
        d="M80.2094 329.095L313.084 144.432L257.194 74.7347L166.911 158.803L221.368 51.0232L154.729 15.0966L98.8394 120.002L117.469 0.00739867L28.6186 0.0073909L0.673588 288.139L80.2094 329.095Z"
        fill="#004D43" />
</svg>