<svg width="612" height="306" viewBox="0 0 612 306" fill="none" xmlns="http://www.w3.org/2000/svg">
<g opacity="0.1">
<g clip-path="url(#clip0_3127_20748)">
<path d="M459.5 0.669922C478.446 95.803 516.315 134.04 612 153.17C516.293 172.3 478.424 210.537 459.5 305.67C440.554 210.537 402.685 172.277 307 153.17C402.707 134.04 440.576 95.803 459.5 0.669922Z" fill="#004D43"/>
</g>
</g>
<path opacity="0.1" d="M290 88.1699C290 48.1293 257.541 15.6699 217.5 15.6699C177.459 15.6699 145 48.1293 145 88.1699C145 48.1293 112.541 15.6699 72.5 15.6699C32.4594 15.6699 -3.16908e-06 48.1293 0 88.1699C1.75023e-06 128.211 32.4594 160.67 72.5 160.67C32.4594 160.67 4.58792e-06 193.129 6.33815e-06 233.17C8.08838e-06 273.211 32.4594 305.67 72.5 305.67C112.541 305.67 145 273.211 145 233.17C145 273.211 177.459 305.67 217.5 305.67C257.541 305.67 290 273.211 290 233.17C290 193.139 257.556 160.685 217.528 160.67C257.556 160.655 290 128.201 290 88.1699Z" fill="#3543C2"/>
<defs>
<clipPath id="clip0_3127_20748">
<rect width="305" height="305" fill="white" transform="translate(307 0.669922)"/>
</clipPath>
</defs>
</svg>
