<svg width="642" height="327" viewBox="0 0 642 327" fill="none" xmlns="http://www.w3.org/2000/svg">
<g opacity="0.1">
<g clip-path="url(#clip0_2811_25103)">
<path d="M489.5 17.6699C508.446 112.803 546.315 151.04 642 170.17C546.293 189.3 508.424 227.537 489.5 322.67C470.554 227.537 432.685 189.277 337 170.17C432.707 151.04 470.576 112.803 489.5 17.6699Z" fill="#004D43"/>
</g>
</g>
<g opacity="0.2">
<path fill-rule="evenodd" clip-rule="evenodd" d="M304.973 327.001C304.973 326.873 304.973 326.745 304.973 326.617C304.973 242.487 236.773 174.287 152.643 174.287C68.5131 174.287 0.3125 242.487 0.3125 326.617C0.3125 326.745 0.312657 326.873 0.312972 327.001H304.973Z" fill="#FE9A66"/>
<path fill-rule="evenodd" clip-rule="evenodd" d="M310.187 197.854C310.207 197.727 310.227 197.601 310.246 197.475C323.25 114.421 266.464 36.5502 183.41 23.5461C100.356 10.5419 22.4849 67.3287 9.48078 150.383C9.461 150.509 9.44139 150.635 9.42193 150.762L310.187 197.854Z" fill="#FE9A66"/>
</g>
<defs>
<clipPath id="clip0_2811_25103">
<rect width="305" height="305" fill="white" transform="translate(337 17.6699)"/>
</clipPath>
</defs>
</svg>
