<svg width="600" height="600" viewBox="0 0 600 600" fill="none" xmlns="http://www.w3.org/2000/svg">
    <path fill-rule="evenodd" clip-rule="evenodd"
        d="M216.997 229C248.503 229 275.769 247.151 288.909 273.566C290.664 277.092 296.787 277.092 298.541 273.566C311.682 247.151 338.948 229 370.454 229C414.786 229 450.724 264.938 450.724 309.271C450.724 340.776 432.573 368.043 406.158 381.183C402.632 382.937 402.632 389.062 406.158 390.816C432.574 403.956 450.725 431.223 450.725 462.729C450.725 507.061 414.786 542.999 370.454 542.999C338.949 542.999 311.682 524.848 298.542 498.433C296.788 494.907 290.664 494.907 288.91 498.434C275.769 524.849 248.503 543 216.997 543C172.665 543 136.727 507.062 136.727 462.729C136.727 431.223 154.878 403.957 181.294 390.816C184.82 389.062 184.82 382.938 181.294 381.184C154.878 368.043 136.727 340.777 136.727 309.271C136.727 264.938 172.665 229 216.997 229Z"
        fill="#004D43" />
</svg>