<svg width="600" height="600" viewBox="0 0 600 600" fill="none" xmlns="http://www.w3.org/2000/svg">
    <path
        d="M477.001 346.069C477.015 346.019 477.022 345.994 477.025 345.982C479.235 338.233 490.218 338.233 492.428 345.982C492.431 345.994 492.438 346.019 492.452 346.069C492.49 346.201 492.508 346.268 492.526 346.33C502.795 382.591 531.136 410.932 567.397 421.2C567.459 421.218 567.525 421.237 567.657 421.274C567.708 421.288 567.733 421.295 567.744 421.299C575.494 423.508 575.494 434.491 567.744 436.701C567.733 436.704 567.708 436.712 567.657 436.726C567.525 436.763 567.459 436.782 567.397 436.799C531.136 447.068 502.795 475.409 492.526 511.67C492.508 511.732 492.49 511.798 492.452 511.931C492.438 511.981 492.431 512.006 492.428 512.018C490.218 519.767 479.235 519.767 477.025 512.018C477.022 512.006 477.015 511.981 477.001 511.931C476.963 511.798 476.945 511.732 476.927 511.67C466.658 475.409 438.318 447.068 402.056 436.799C401.994 436.782 401.928 436.763 401.796 436.726C401.746 436.712 401.721 436.704 401.709 436.701C393.959 434.491 393.959 423.508 401.709 421.299C401.721 421.295 401.746 421.288 401.796 421.274C401.928 421.237 401.994 421.218 402.056 421.2C438.318 410.932 466.658 382.591 476.927 346.33C476.945 346.268 476.963 346.201 477.001 346.069Z"
        fill="#FE9A66" />
</svg>