<svg width="600" height="401" viewBox="0 0 600 401" fill="none" xmlns="http://www.w3.org/2000/svg">
    <path
        d="M387.889 232.5H290.358C288.648 232.5 287.726 230.493 288.841 229.196L345.936 162.804C347.052 161.507 346.13 159.5 344.42 159.5H319.469C317.759 159.5 316.837 157.493 317.952 156.196L375.047 89.8041C376.163 88.5074 375.241 86.5 373.531 86.5H349.04C347.26 86.5 346.367 84.3488 347.624 83.0879L415.584 14.9207C416.365 14.1368 417.635 14.1368 418.416 14.9207L486.376 83.0879C487.633 84.3487 486.74 86.5 484.96 86.5H460.469C458.759 86.5 457.837 88.5074 458.952 89.8041L516.047 156.196C517.163 157.493 516.241 159.5 514.531 159.5H489.58C487.87 159.5 486.948 161.507 488.064 162.804L545.159 229.196C546.274 230.493 545.352 232.5 543.642 232.5H446.111H387.889Z"
        fill="#CDEB69" />
</svg>