<svg width="600" height="401" viewBox="0 0 600 401" fill="none" xmlns="http://www.w3.org/2000/svg">

    <path
        d="M45 87.0469C44.9964 101.101 50.5772 114.582 60.515 124.523C70.4527 134.464 83.9333 140.051 97.9914 140.055V87.0469H45ZM97.9914 140.055H151V87.0469C144.037 87.046 137.143 88.4166 130.71 91.0803C124.278 93.7441 118.433 97.6489 113.51 102.572C108.588 107.494 104.684 113.338 102.021 119.77C99.3579 126.202 97.9887 133.095 97.9914 140.055ZM97.9914 140.055L97.9914 193.047H151C151 186.088 149.63 179.196 146.966 172.767C144.302 166.337 140.397 160.495 135.475 155.574C130.553 150.653 124.709 146.75 118.277 144.087C111.846 141.425 104.953 140.055 97.9914 140.055ZM97.9914 140.055H45L45 193.047C59.0557 193.044 72.5348 187.46 82.4724 177.522C92.4101 167.585 97.9923 154.108 97.9914 140.055Z"
        fill="#FE9A66" />

</svg>