<svg width="600" height="401" viewBox="0 0 600 401" fill="none" xmlns="http://www.w3.org/2000/svg">
    <path fill-rule="evenodd" clip-rule="evenodd"
        d="M357.5 232.175C346.73 213.521 353.122 189.669 371.775 178.9L455.404 130.617C456.839 129.788 458.673 130.28 459.502 131.715L480.114 167.415C481.305 169.478 484.405 169.427 485.978 167.637C487.527 165.875 489.386 164.331 491.531 163.092C502.097 156.992 515.607 160.612 521.707 171.178C527.807 181.744 524.187 195.254 513.621 201.354C511.476 202.592 509.21 203.43 506.909 203.89C504.573 204.358 502.978 207.017 504.169 209.08L525.785 246.52C526.613 247.955 526.122 249.79 524.687 250.618L484.069 274.069C481.63 275.477 478.283 272.869 478.231 270.054C478.164 266.439 477.207 262.791 475.272 259.438C469.172 248.873 455.661 245.253 445.096 251.353C434.53 257.453 430.91 270.963 437.01 281.528C438.946 284.881 441.627 287.534 444.724 289.399C447.136 290.852 447.721 295.055 445.283 296.463L409.881 316.902C408.446 317.73 406.612 317.238 405.783 315.803L357.5 232.175Z"
        fill="#004D43" />
</svg>