<svg width="600" height="400" viewBox="0 0 600 400" fill="none" xmlns="http://www.w3.org/2000/svg">
    <path fill-rule="evenodd" clip-rule="evenodd"
        d="M460.27 175.017C460.099 175.607 459.666 176.085 459.097 176.315L436.649 185.366C434.887 186.077 435.015 188.613 436.839 189.142L484.091 202.852C485.916 203.381 487.381 201.307 486.273 199.764L472.155 180.104C471.797 179.605 471.688 178.97 471.859 178.38L479.231 152.974V152.974C479.305 152.718 479.453 152.487 479.672 152.336L540.485 110.418C541.873 109.461 541.527 107.321 539.907 106.851L441.072 78.1748C439.453 77.7048 438.014 79.3274 438.675 80.8791L467.609 148.836C467.713 149.081 467.715 149.355 467.641 149.611V149.611L460.27 175.017Z"
        fill="#C77DF6" />
</svg>