<svg width="548" height="400" viewBox="0 0 548 400" fill="none" xmlns="http://www.w3.org/2000/svg">
<path fill-rule="evenodd" clip-rule="evenodd" d="M399.3 202.951V211.533H384.567C376.434 211.533 369.833 218.134 369.833 226.267C369.833 234.399 376.434 241 384.567 241H443.5C451.633 241 458.233 234.399 458.233 226.267C458.233 218.134 451.633 211.533 443.5 211.533H428.767V202.951C466.764 196.601 495.067 166.177 495.067 130.5C495.067 122.367 488.466 115.767 480.333 115.767C472.201 115.767 465.6 122.367 465.6 130.5C465.6 155.407 442.049 174.7 414.033 174.7C386.018 174.7 362.467 155.407 362.467 130.5C362.467 122.367 355.866 115.767 347.733 115.767C339.601 115.767 333 122.367 333 130.5C333 166.177 361.303 196.601 399.3 202.951ZM450.867 129.122V50.8516C450.867 34.3208 434.771 20 414.033 20C393.385 20 377.333 34.2029 377.2 50.6379V129.329C377.333 145.764 393.385 159.967 414.033 159.967C434.771 159.967 450.867 145.646 450.867 129.122Z" fill="#CDEB69"/>
</svg>
