<svg width="600" height="600" viewBox="0 0 600 600" fill="none" xmlns="http://www.w3.org/2000/svg">
    <path
        d="M121.249 233.5C150.658 233.5 174.499 209.659 174.499 180.25C174.499 209.652 198.329 233.489 227.728 233.5C198.329 233.511 174.499 257.348 174.499 286.75C174.499 257.341 150.658 233.5 121.249 233.5C91.8399 233.5 67.999 257.341 67.999 286.75L67.999 340L121.249 340C150.658 340 174.499 316.159 174.499 286.75C174.499 316.159 198.34 340 227.749 340L280.999 340L280.999 286.75C280.999 257.348 257.169 233.511 227.77 233.5C257.169 233.489 280.999 209.652 280.999 180.25L280.999 127L227.749 127C198.34 127 174.499 150.841 174.499 180.25C174.499 150.841 150.658 127 121.249 127L67.999 127L67.999 180.25C67.999 209.659 91.8399 233.5 121.249 233.5Z"
        fill="#CDEB69" />
</svg>