<svg width="600" height="600" viewBox="0 0 600 600" fill="none" xmlns="http://www.w3.org/2000/svg">
    <path
        d="M418.273 386.069C418.287 386.019 418.294 385.994 418.298 385.982C420.508 378.233 431.49 378.233 433.7 385.982C433.704 385.994 433.711 386.019 433.725 386.069C433.762 386.201 433.781 386.268 433.798 386.33C444.067 422.591 472.408 450.932 508.669 461.2C508.731 461.218 508.798 461.237 508.93 461.274C508.98 461.288 509.005 461.295 509.017 461.299C516.766 463.508 516.766 474.491 509.017 476.701C509.005 476.704 508.98 476.712 508.93 476.726C508.798 476.763 508.731 476.782 508.669 476.799C472.408 487.068 444.067 515.409 433.798 551.67C433.781 551.732 433.762 551.798 433.725 551.931C433.711 551.981 433.704 552.006 433.7 552.018C431.49 559.767 420.508 559.767 418.298 552.018C418.294 552.006 418.287 551.981 418.273 551.931C418.236 551.798 418.217 551.732 418.2 551.67C407.931 515.409 379.59 487.068 343.329 476.799C343.267 476.782 343.201 476.763 343.068 476.726C343.018 476.712 342.993 476.704 342.981 476.701C335.232 474.491 335.232 463.508 342.981 461.299C342.993 461.295 343.018 461.288 343.068 461.274C343.201 461.237 343.267 461.218 343.329 461.2C379.59 450.932 407.931 422.591 418.2 386.33C418.217 386.268 418.236 386.201 418.273 386.069Z"
        fill="#FE9A66" />
</svg>