<svg xmlns="http://www.w3.org/2000/svg" version="1.1" xmlns:xlink="http://www.w3.org/1999/xlink" xmlns:svgjs="http://svgjs.dev/svgjs" width="800" height="800"><svg width="800" height="800" viewBox="0 0 800 800" fill="none" xmlns="http://www.w3.org/2000/svg">
<g clip-path="url(#clip0_3265_3407)">
<rect width="800" height="800" fill="#004D43"></rect>
<path d="M400.056 665.953C357.095 665.953 317.243 660.513 280.722 649.635C244.2 638.756 212.451 622.327 185.476 600.236C158.501 578.256 137.521 550.615 122.535 517.424C107.549 484.232 100 445.379 100 400.865C100 356.351 107.549 317.387 122.535 283.862C137.521 250.449 158.501 222.697 185.476 200.717C212.451 178.737 244.2 162.197 280.722 151.318C317.243 140.439 356.984 135 400.056 135C443.127 135 482.757 140.439 519.278 151.318C555.8 162.197 587.549 178.626 614.524 200.717C641.499 222.697 662.479 250.449 677.465 283.862C692.451 317.276 700 356.24 700 400.865C700 445.49 692.451 484.232 677.465 517.424C662.479 550.615 641.499 578.145 614.524 600.236C587.549 622.216 555.8 638.645 519.278 649.635C482.757 660.513 443.016 665.953 400.056 665.953Z" fill="#CDEB69"></path>
</g>
<defs>
<clipPath id="SvgjsClipPath1005">
<rect width="800" height="800" fill="white"></rect>
</clipPath>
</defs>
</svg><style>@media (prefers-color-scheme: light) { :root { filter: none; } }
@media (prefers-color-scheme: dark) { :root { filter: none; } }
</style></svg>