<svg width="600" height="600" viewBox="0 0 600 600" fill="none" xmlns="http://www.w3.org/2000/svg">
    <path
        d="M460.324 392.272C460.336 392.229 460.343 392.207 460.345 392.197C462.257 385.494 471.756 385.494 473.667 392.197C473.67 392.207 473.676 392.229 473.689 392.272C473.721 392.387 473.737 392.444 473.752 392.498C482.634 423.86 507.146 448.372 538.509 457.254C538.562 457.269 538.62 457.285 538.734 457.318C538.778 457.33 538.799 457.336 538.809 457.339C545.512 459.25 545.512 468.749 538.809 470.661C538.799 470.664 538.778 470.67 538.734 470.682C538.62 470.714 538.562 470.73 538.509 470.746C507.146 479.627 482.634 504.139 473.752 535.502C473.737 535.556 473.721 535.613 473.689 535.728C473.676 535.771 473.67 535.793 473.667 535.803C471.756 542.505 462.257 542.505 460.345 535.803C460.343 535.793 460.336 535.771 460.324 535.727C460.292 535.613 460.276 535.556 460.261 535.502C451.379 504.139 426.867 479.627 395.504 470.746C395.45 470.73 395.393 470.714 395.279 470.682C395.235 470.67 395.214 470.664 395.204 470.661C388.501 468.749 388.501 459.25 395.204 457.339C395.214 457.336 395.235 457.33 395.279 457.318C395.393 457.285 395.45 457.269 395.504 457.254C426.867 448.372 451.379 423.86 460.261 392.498C460.276 392.444 460.292 392.387 460.324 392.272Z"
        fill="#004D43" />
</svg>