<svg width="600" height="600" viewBox="0 0 600 600" fill="none" xmlns="http://www.w3.org/2000/svg">
    <path fill-rule="evenodd" clip-rule="evenodd"
        d="M418.646 114.11C419.738 119.219 420.033 124.313 419.616 129.262C419.559 129.939 420.394 130.353 420.898 129.898V129.898C442.084 110.781 474.757 112.459 493.874 133.645C512.991 154.832 511.314 187.504 490.128 206.621C486.189 210.175 481.854 213.01 477.283 215.135C476.449 215.523 476.527 216.812 477.402 217.096V217.096C504.551 225.885 519.435 255.019 510.646 282.168C501.856 309.317 472.722 324.201 445.573 315.412C440.368 313.727 435.614 311.294 431.392 308.271C430.911 307.927 430.234 308.37 430.357 308.948V308.948C436.32 336.855 418.531 364.312 390.625 370.274C362.718 376.237 335.261 358.448 329.299 330.542C328.206 325.43 327.911 320.334 328.329 315.382C328.385 314.712 327.558 314.301 327.058 314.752V314.752C305.872 333.869 273.199 332.192 254.082 311.005C234.965 289.819 236.642 257.146 257.829 238.029C261.789 234.456 266.15 231.609 270.749 229.48C271.333 229.21 271.281 228.328 270.668 228.129V228.129C243.519 219.34 228.635 190.206 237.424 163.057C246.214 135.908 275.348 121.024 302.497 129.813C307.508 131.436 312.101 133.751 316.205 136.619C316.847 137.068 317.751 136.468 317.587 135.703V135.703C311.624 107.796 329.413 80.3395 357.32 74.3767C385.227 68.4139 412.683 86.2029 418.646 114.11ZM409.594 275.616C408.808 275.784 408.62 276.833 409.279 277.29V277.29C409.975 277.773 410.96 277.134 410.795 276.303V276.303C410.696 275.808 410.214 275.483 409.721 275.589L409.594 275.616Z"
        fill="#FE9A66" />
</svg>