<svg xmlns="http://www.w3.org/2000/svg" width="32" height="32" viewBox="0 0 32 32" fill="none">
    <g clip-path="url(#clip0_3127_20799)">
        <path
            d="M30.4175 8.80492C30.4175 3.9421 26.4752 9.20754e-07 21.612 5.15622e-07L10.4051 0C5.54195 -2.23748e-07 1.59961 3.9421 1.59961 8.80492C1.59961 11.7828 3.07804 14.4155 5.34101 16.0089C3.07804 17.6024 1.59961 20.2351 1.59961 23.213C1.59961 28.0758 5.54195 32.0179 10.4051 32.0179H21.612C26.4752 32.0179 30.4175 28.0758 30.4175 23.213C30.4175 20.2351 28.9391 17.6024 26.6761 16.0089C28.9391 14.4155 30.4175 11.7828 30.4175 8.80492Z"
            fill="#3543C2" />
    </g>
    <defs>
        <clipPath id="clip0_3127_20799">
            <rect width="32" height="32" fill="white" />
        </clipPath>
    </defs>
</svg>