<svg width="548" height="400" viewBox="0 0 548 400" fill="none" xmlns="http://www.w3.org/2000/svg">
<path d="M361.889 236H264.358C262.648 236 261.726 233.993 262.841 232.696L319.936 166.304C321.052 165.007 320.13 163 318.42 163H293.469C291.759 163 290.837 160.993 291.952 159.696L349.047 93.3041C350.163 92.0074 349.241 90 347.531 90H323.04C321.26 90 320.367 87.8488 321.624 86.5879L389.584 18.4207C390.365 17.6368 391.635 17.6368 392.416 18.4207L460.376 86.5879C461.633 87.8487 460.74 90 458.96 90H434.469C432.759 90 431.837 92.0074 432.952 93.3041L490.047 159.696C491.163 160.993 490.241 163 488.531 163H463.58C461.87 163 460.948 165.007 462.064 166.304L519.159 232.696C520.274 233.993 519.352 236 517.642 236H420.111H361.889Z" fill="#CDEB69"/>
</svg>
