<svg xmlns="http://www.w3.org/2000/svg" width="64" height="64" viewBox="0 0 64 64" fill="none">
    <path fill-rule="evenodd" clip-rule="evenodd"
        d="M32.1509 32.572C34.3219 39.7077 40.9546 44.8999 48.8 44.8999C53.3553 44.8999 57.5018 43.1495 60.6034 40.2845C60.9448 39.9691 61.5087 40.1149 61.6062 40.5694C61.8642 41.7721 62 43.0201 62 44.2999C62 54.0753 54.0755 61.9999 44.3001 61.9999C34.5246 61.9999 26.6001 54.0753 26.6001 44.2999C26.6001 39.5961 28.435 35.3209 31.428 32.1509C24.2923 34.3219 19.1 40.9546 19.1 48.8C19.1 53.3553 20.8505 57.5017 23.7155 60.6033C24.0309 60.9448 23.8851 61.5086 23.4306 61.6061C22.2279 61.8641 20.9798 62 19.7001 62C9.92464 62 2.00011 54.0754 2.0001 44.3C2.0001 34.5246 9.92464 26.6001 19.7 26.6001C24.4038 26.6001 28.6791 28.4349 31.8491 31.4279C29.6781 24.2923 23.0454 19.1 15.2 19.1C10.6447 19.1 6.49824 20.8505 3.39663 23.7155C3.05517 24.0309 2.49134 23.885 2.39384 23.4305C2.13582 22.2278 2 20.9798 2 19.7C2 9.92461 9.92453 2.00007 19.6999 2.00007C29.4753 2.00007 37.3999 9.92461 37.3999 19.7C37.3999 24.4038 35.565 28.6791 32.572 31.849C39.7077 29.678 44.9 23.0453 44.9 15.1999C44.9 10.6446 43.1495 6.49821 40.2845 3.39659C39.9691 3.05514 40.1149 2.49131 40.5694 2.39381C41.7721 2.13579 43.0202 1.99997 44.2999 1.99997C54.0754 1.99997 61.9999 9.9245 61.9999 19.6999C61.9999 29.4753 54.0754 37.3999 44.2999 37.3999C39.5962 37.3999 35.3209 35.565 32.1509 32.572Z"
        fill="#FE9A66" />
</svg>